<svg id="visual" viewBox="0 0 900 600" width="900" height="600" xmlns="http://www.w3.org/2000/svg" xmlns:xlink="http://www.w3.org/1999/xlink" version="1.1"><rect x="0" y="0" width="900" height="600" fill="#000B1B"></rect><g transform="translate(423.92078215981525 261.9108697759747)"><path d="M62.9 -93.2C89 -67.6 123 -59.3 168.8 -28.8C214.6 1.8 272.3 54.5 282.9 113.6C293.5 172.6 257 238 201.9 247.6C146.9 257.3 73.5 211.1 11.9 194.8C-49.8 178.5 -99.5 192 -119 170.8C-138.5 149.7 -127.8 93.8 -152.2 43.6C-176.6 -6.7 -236.2 -51.4 -232.4 -79.3C-228.5 -107.2 -161.3 -118.3 -112 -136.5C-62.7 -154.6 -31.3 -179.8 -6.5 -170.9C18.4 -162 36.7 -118.9 62.9 -93.2" fill="#001122"></path></g></svg>